<?xml version="1.0" encoding="utf-8"?>
<!-- Generator: Adobe Illustrator 16.0.0, SVG Export Plug-In . SVG Version: 6.00 Build 0)  -->
<!DOCTYPE svg PUBLIC "-//W3C//DTD SVG 1.0//EN" "http://www.w3.org/TR/2001/REC-SVG-20010904/DTD/svg10.dtd">
<svg version="1.0" id="Layer_1" xmlns="http://www.w3.org/2000/svg" xmlns:xlink="http://www.w3.org/1999/xlink" x="0px" y="0px"
	 width="800px" height="800px" viewBox="0 0 800 800" enable-background="new 0 0 800 800" xml:space="preserve">
<path d="M221.959,538.371c15.584-12.99,18.275-29.111,18.275-43.514v-60.703h-84.718v82.357c0,11.766-9.557,21.322-21.31,21.322
	c-11.781,0-20.527-9.543-20.527-21.322V283.201c0-11.767,8.746-21.31,20.527-21.31c11.739,0,21.31,9.529,21.31,21.31v82.864h84.621
	v-85.953c-0.014-47.494-31.044-86.571-106.658-86.681c-77.633,0-106.976,39.27-106.976,86.763V523.76
	c0,47.082,37.375,82.715,85.157,82.699h26.253L221.959,538.371 M555.995,547.926V280.264h-58.451v-78.855h211.63v78.855h-58.78
	v325.742h-25.058L555.995,547.926"/>
<path fill="#FFCB08" d="M593.933,606.568l-206.109-172.66l-213.564,172.66H593.933"/>
<path d="M446.66,201.849H328.576l-68.79,308.62l128.093-103.363L521.436,519.01L446.66,201.849z M365.031,387.32l22.848-116.641
	l22.668,116.641H365.031z M754.608,208.058c4.478,0,8.302,1.585,11.464,4.766c3.144,3.162,4.719,6.977,4.719,11.454
	c0,4.506-1.575,8.349-4.719,11.52c-3.152,3.181-6.968,4.767-11.464,4.767s-8.329-1.586-11.464-4.767
	c-3.077-3.034-4.776-7.198-4.7-11.52c0-4.468,1.576-8.292,4.719-11.454C746.154,209.72,750.299,207.993,754.608,208.058z
	 M773.496,224.24c0-5.186-1.837-9.607-5.512-13.255c-3.676-3.646-8.116-5.475-13.329-5.475c-4.983-0.078-9.779,1.902-13.255,5.475
	c-3.591,3.467-5.586,8.265-5.512,13.255c0,5.224,1.819,9.673,5.456,13.338c3.665,3.694,8.097,5.531,13.311,5.531
	c5.213,0,9.653-1.837,13.329-5.531C771.659,233.894,773.496,229.445,773.496,224.24L773.496,224.24z M759.646,220.201
	c0,1.576-0.719,2.649-2.146,3.209c-1.131,0.354-2.314,0.508-3.498,0.457h-3.311v-7.434h3.133
	C757.901,216.434,759.646,217.217,759.646,220.201L759.646,220.201z M747.044,213.887v20.623h3.647v-8.097h2.882
	c1.94,0,3.292,0.215,4.067,0.662c1.305,0.766,1.948,2.332,1.948,4.701v1.633l0.085,0.662c0.01,0.079,0.025,0.156,0.046,0.233
	l0.056,0.196h3.387l-0.131-0.253c-0.215-1.613-0.233-4.104-0.233-4.104c-0.032-2.633-1.989-4.844-4.599-5.195
	c3.656-0.606,4.963-2.258,4.963-5.084c0-2.602-1.063-4.346-3.209-5.242c-1.203-0.503-3.088-0.745-5.652-0.745h-7.257V213.887z"/>
</svg>
